# xmcd
#
# Track frame offsets:
# 150
# 14415
# 25655
# 39167
# 50912
# 63209
# 75884
# 88364
# 100919
# 121469
# 133319
# 146759
# 158837
# 172067
# 186257
# 199382
#
# Disc length: 2881 seconds
#
#
# Revision: 2
# Processed by: cddbd v1.5.2PL0 Copyright (c) Steve Scherf et al.
# Submitted via: MfcCDDB 1.28 
#
DISCID=e20b3f10
DTITLE=Unknown Artist e20b3f10 - Unknown Album e20b3f10
DYEAR=2000
DGENRE=Unknown Genre e20b3f10
TTITLE0=Track01
TTITLE1=Track02
TTITLE2=Track03
TTITLE3=Track04
TTITLE4=Track05
TTITLE5=Track06
TTITLE6=Track07
TTITLE7=Track08
TTITLE8=Track09
TTITLE9=Track10
TTITLE10=Track11
TTITLE11=Track12
TTITLE12=Track13
TTITLE13=Track14
TTITLE14=Track15
TTITLE15=Track16
EXTD=
EXTT0=
EXTT1=
EXTT2=
EXTT3=
EXTT4=
EXTT5=
EXTT6=
EXTT7=
EXTT8=
EXTT9=
EXTT10=
EXTT11=
EXTT12=
EXTT13=
EXTT14=
EXTT15=
PLAYORDER=
